<svg xmlns="http://www.w3.org/2000/svg" width="17.051" height="15.833" viewBox="0 0 17.051 15.833">
  <path id="Icon_ionic-ios-star" data-name="Icon ionic-ios-star" d="M18.654,8.856h-5.6l-1.7-5.077a.616.616,0,0,0-1.157,0L8.5,8.856H2.859a.611.611,0,0,0-.609.609.448.448,0,0,0,.011.1.585.585,0,0,0,.255.43l4.6,3.243L5.352,18.374a.611.611,0,0,0,.209.685.589.589,0,0,0,.343.148.746.746,0,0,0,.381-.137l4.491-3.2,4.491,3.2a.713.713,0,0,0,.381.137.547.547,0,0,0,.339-.148.6.6,0,0,0,.209-.685L14.429,13.24l4.563-3.273.11-.1a.582.582,0,0,0-.449-1.016Z" transform="translate(-2.25 -3.375)" fill="#dd5f00"/>
</svg>
