<svg xmlns="http://www.w3.org/2000/svg" width="15.413" height="11.988" viewBox="0 0 15.413 11.988">
  <path id="Icon_awesome-shopping-basket" data-name="Icon awesome-shopping-basket" d="M15.413,7.173V7.6a.642.642,0,0,1-.642.642h-.214l-.7,4.891a1.284,1.284,0,0,1-1.271,1.1H2.826a1.284,1.284,0,0,1-1.272-1.1l-.7-4.891H.642A.642.642,0,0,1,0,7.6V7.173a.642.642,0,0,1,.642-.642h1.8L5.3,2.6A.856.856,0,0,1,6.686,3.61L4.562,6.531h6.289L8.726,3.61A.856.856,0,0,1,10.111,2.6l2.857,3.929h1.8A.642.642,0,0,1,15.413,7.173ZM8.349,11.883v-3a.642.642,0,0,0-1.284,0v3a.642.642,0,0,0,1.284,0Zm3,0v-3a.642.642,0,0,0-1.284,0v3a.642.642,0,0,0,1.284,0Zm-5.994,0v-3a.642.642,0,0,0-1.284,0v3a.642.642,0,0,0,1.284,0Z" transform="translate(0 -2.25)" fill="#656565"/>
</svg>
