<svg xmlns="http://www.w3.org/2000/svg" width="73.988" height="73.988" viewBox="0 0 73.988 73.988">
  <path id="Icon_ionic-ios-arrow-dropdown-circle" data-name="Icon ionic-ios-arrow-dropdown-circle" d="M0,36.994A36.994,36.994,0,1,0,36.994,0,36.988,36.988,0,0,0,0,36.994Zm51.418-7.719a3.446,3.446,0,0,1,4.855,0,3.391,3.391,0,0,1,1,2.419,3.45,3.45,0,0,1-1.014,2.437L39.484,50.849a3.429,3.429,0,0,1-4.731-.107L17.732,33.775a3.433,3.433,0,1,1,4.855-4.855L37.012,43.485Z" transform="translate(0 73.988) rotate(-90)" fill="#dd5f00"/>
</svg>
