<svg xmlns="http://www.w3.org/2000/svg" width="6.048" height="8.832" viewBox="0 0 6.048 8.832">
  <path id="Path_1" data-name="Path 1" d="M.468-1.644q.408-.324.372-.3,1.176-.972,1.854-1.6A7.676,7.676,0,0,0,3.84-4.848,2.364,2.364,0,0,0,4.308-6.18a1.172,1.172,0,0,0-.228-.768A.836.836,0,0,0,3.4-7.224a.844.844,0,0,0-.714.342,1.577,1.577,0,0,0-.258.966H.444a3.4,3.4,0,0,1,.438-1.7A2.544,2.544,0,0,1,1.974-8.628,3.448,3.448,0,0,1,3.48-8.952a2.908,2.908,0,0,1,2.154.732A2.592,2.592,0,0,1,6.36-6.312,3.742,3.742,0,0,1,5.484-3.93,12.9,12.9,0,0,1,3.252-1.788h3.24V-.12H.468Z" transform="translate(-0.444 8.952)" fill="#fff"/>
</svg>
